{
  "accessors": [
    {
      "bufferView": 2,
      "componentType": 5126,
      "count": 5139,
      "max": [
        0.7906954288482666,
        1.0463182926177979,
        1.1765261888504028
      ],
      "min": [
        -1.532155156135559,
        -1.1429224014282227,
        -1.1764516830444336
      ],
      "type": "VEC3"
    },
    {
      "bufferView": 2,
      "byteOffset": 61668,
      "componentType": 5126,
      "count": 5139,
      "max": [
        0.9999949932098389,
        0.9999950528144836,
        1.0
      ],
      "min": [
        -0.9999950528144836,
        -1.0,
        -1.0
      ],
      "type": "VEC3"
    },
    {
      "bufferView": 3,
      "componentType": 5126,
      "count": 5139,
      "max": [
        0.9998525977134705,
        0.9999950528144836,
        1.0,
        1.0
      ],
      "min": [
        -1.0,
        -0.9999954104423523,
        -1.0,
        -1.0
      ],
      "type": "VEC4"
    },
    {
      "bufferView": 1,
      "componentType": 5126,
      "count": 5139,
      "max": [
        0.998853325843811,
        0.9985459446907043
      ],
      "min": [
        0.0011467784643173218,
        0.0011467933654785156
      ],
      "type": "VEC2"
    },
    {
      "bufferView": 1,
      "byteOffset": 41112,
      "componentType": 5126,
      "count": 5139,
      "max": [
        0.998853325843811,
        0.9985459446907043
      ],
      "min": [
        0.0011467784643173218,
        0.0011467933654785156
      ],
      "type": "VEC2"
    },
    {
      "bufferView": 1,
      "byteOffset": 82224,
      "componentType": 5126,
      "count": 5139,
      "max": [
        0.998853325843811,
        0.9985459446907043
      ],
      "min": [
        0.0011467784643173218,
        0.0011467933654785156
      ],
      "type": "VEC2"
    },
    {
      "bufferView": 1,
      "byteOffset": 123336,
      "componentType": 5126,
      "count": 5139,
      "max": [
        0.998853325843811,
        0.9985459446907043
      ],
      "min": [
        0.0011467784643173218,
        0.0011467933654785156
      ],
      "type": "VEC2"
    },
    {
      "bufferView": 0,
      "componentType": 5125,
      "count": 12750,
      "type": "SCALAR"
    },
    {
      "bufferView": 2,
      "byteOffset": 123336,
      "componentType": 5126,
      "count": 12,
      "max": [
        1.1299753189086914,
        -0.897272527217865,
        -0.8289488554000854
      ],
      "min": [
        1.1239266395568848,
        -0.9312295317649841,
        -0.8982234001159668
      ],
      "type": "VEC3"
    },
    {
      "bufferView": 2,
      "byteOffset": 123480,
      "componentType": 5126,
      "count": 12,
      "max": [
        0.9956822991371155,
        0.9937022924423218,
        5.5726632126607e-05
      ],
      "min": [
        -0.11205248534679413,
        -0.9937048554420471,
        -6.169911557662999e-06
      ],
      "type": "VEC3"
    },
    {
      "bufferView": 1,
      "byteOffset": 164448,
      "componentType": 5126,
      "count": 12,
      "max": [
        0.5091045498847961,
        0.9774941802024841
      ],
      "min": [
        0.23184239864349365,
        0.6471512317657471
      ],
      "type": "VEC2"
    },
    {
      "bufferView": 0,
      "byteOffset": 51000,
      "componentType": 5125,
      "count": 18,
      "type": "SCALAR"
    },
    {
      "bufferView": 2,
      "byteOffset": 123624,
      "componentType": 5126,
      "count": 225,
      "max": [
        1.0309045314788818,
        0.8779454827308655,
        0.9715943932533264
      ],
      "min": [
        0.8088879585266113,
        -0.7163340449333191,
        -0.9714930057525635
      ],
      "type": "VEC3"
    },
    {
      "bufferView": 2,
      "byteOffset": 126324,
      "componentType": 5126,
      "count": 225,
      "max": [
        0.9992955327033997,
        0.1555715799331665,
        0.09464669227600098
      ],
      "min": [
        0.9834201335906982,
        0.03736206144094467,
        -0.09453316032886505
      ],
      "type": "VEC3"
    },
    {
      "bufferView": 3,
      "byteOffset": 82224,
      "componentType": 5126,
      "count": 225,
      "max": [
        0.09438871592283249,
        0.01170530915260315,
        -0.9955102205276489,
        1.0
      ],
      "min": [
        -0.09427472949028015,
        -0.011635507456958294,
        -1.0,
        1.0
      ],
      "type": "VEC4"
    },
    {
      "bufferView": 1,
      "byteOffset": 164544,
      "componentType": 5126,
      "count": 225,
      "max": [
        0.9999493360519409,
        1.001949429512024
      ],
      "min": [
        0.00013061938807368279,
        0.18205046653747559
      ],
      "type": "VEC2"
    },
    {
      "bufferView": 0,
      "byteOffset": 51072,
      "componentType": 5125,
      "count": 1176,
      "type": "SCALAR"
    },
    {
      "bufferView": 2,
      "byteOffset": 129024,
      "componentType": 5126,
      "count": 544,
      "max": [
        1.1398465633392334,
        1.0463182926177979,
        1.1765261888504028
      ],
      "min": [
        0.619778573513031,
        -1.113440752029419,
        -1.1764510869979858
      ],
      "type": "VEC3"
    },
    {
      "bufferView": 2,
      "byteOffset": 135552,
      "componentType": 5126,
      "count": 544,
      "max": [
        0.9956833720207214,
        0.9991869926452637,
        1.0
      ],
      "min": [
        -0.09641832858324051,
        -0.9961403608322144,
        -1.0
      ],
      "type": "VEC3"
    },
    {
      "bufferView": 3,
      "byteOffset": 85824,
      "componentType": 5126,
      "count": 544,
      "max": [
        0.9991868138313293,
        0.9954361915588379,
        0.07440078258514404,
        1.0
      ],
      "min": [
        -0.999065637588501,
        -0.9956834316253662,
        -0.07367964833974838,
        1.0
      ],
      "type": "VEC4"
    },
    {
      "bufferView": 1,
      "byteOffset": 166344,
      "componentType": 5126,
      "count": 544,
      "max": [
        0.9946311116218567,
        0.9944496750831604
      ],
      "min": [
        0.0011467933654785156,
        0.2175600528717041
      ],
      "type": "VEC2"
    },
    {
      "bufferView": 1,
      "byteOffset": 170696,
      "componentType": 5126,
      "count": 544,
      "max": [
        0.9946311116218567,
        0.9944496750831604
      ],
      "min": [
        0.0011467933654785156,
        0.2175600528717041
      ],
      "type": "VEC2"
    },
    {
      "bufferView": 1,
      "byteOffset": 175048,
      "componentType": 5126,
      "count": 544,
      "max": [
        0.9946311116218567,
        0.9944496750831604
      ],
      "min": [
        0.0011467933654785156,
        0.2175600528717041
      ],
      "type": "VEC2"
    },
    {
      "bufferView": 1,
      "byteOffset": 179400,
      "componentType": 5126,
      "count": 544,
      "max": [
        0.9946311116218567,
        0.9944496750831604
      ],
      "min": [
        0.0011467933654785156,
        0.2175600528717041
      ],
      "type": "VEC2"
    },
    {
      "bufferView": 0,
      "byteOffset": 55776,
      "componentType": 5125,
      "count": 1974,
      "type": "SCALAR"
    },
    {
      "bufferView": 2,
      "byteOffset": 142080,
      "componentType": 5126,
      "count": 220,
      "max": [
        1.1504377126693726,
        0.9826943278312683,
        1.089011788368225
      ],
      "min": [
        0.6403461694717407,
        -0.9408631324768066,
        -1.0888943672180176
      ],
      "type": "VEC3"
    },
    {
      "bufferView": 2,
      "byteOffset": 144720,
      "componentType": 5126,
      "count": 220,
      "max": [
        0.9954527020454407,
        0.9978936910629272,
        1.0
      ],
      "min": [
        -0.9943198561668396,
        -0.9978941679000854,
        -1.0
      ],
      "type": "VEC3"
    },
    {
      "bufferView": 3,
      "byteOffset": 94528,
      "componentType": 5126,
      "count": 220,
      "max": [
        0.9954522252082825,
        0.10289055854082108,
        0.07443021237850189,
        1.0
      ],
      "min": [
        -0.9978942275047302,
        -0.9954527020454407,
        -0.07438290864229202,
        1.0
      ],
      "type": "VEC4"
    },
    {
      "bufferView": 1,
      "byteOffset": 183752,
      "componentType": 5126,
      "count": 220,
      "max": [
        0.9626908898353577,
        0.9633721709251404
      ],
      "min": [
        0.23482424020767212,
        0.0011467933654785156
      ],
      "type": "VEC2"
    },
    {
      "bufferView": 1,
      "byteOffset": 185512,
      "componentType": 5126,
      "count": 220,
      "max": [
        0.9626908898353577,
        0.9633721709251404
      ],
      "min": [
        0.23482424020767212,
        0.0011467933654785156
      ],
      "type": "VEC2"
    },
    {
      "bufferView": 1,
      "byteOffset": 187272,
      "componentType": 5126,
      "count": 220,
      "max": [
        0.9626908898353577,
        0.9633721709251404
      ],
      "min": [
        0.23482424020767212,
        0.0011467933654785156
      ],
      "type": "VEC2"
    },
    {
      "bufferView": 1,
      "byteOffset": 189032,
      "componentType": 5126,
      "count": 220,
      "max": [
        0.9626908898353577,
        0.9633721709251404
      ],
      "min": [
        0.23482424020767212,
        0.0011467933654785156
      ],
      "type": "VEC2"
    },
    {
      "bufferView": 0,
      "byteOffset": 63672,
      "componentType": 5125,
      "count": 576,
      "type": "SCALAR"
    },
    {
      "bufferView": 2,
      "byteOffset": 147360,
      "componentType": 5126,
      "count": 1088,
      "max": [
        -1.0235670804977417,
        -0.9519221186637878,
        -0.05261048674583435
      ],
      "min": [
        -1.1326490640640259,
        -0.9988513588905334,
        -0.824748694896698
      ],
      "type": "VEC3"
    },
    {
      "bufferView": 2,
      "byteOffset": 160416,
      "componentType": 5126,
      "count": 1088,
      "max": [
        0.9994156360626221,
        0.9994043707847595,
        0.9999889135360718
      ],
      "min": [
        -0.9994158148765564,
        -0.9994043111801147,
        -0.9999887943267822
      ],
      "type": "VEC3"
    },
    {
      "bufferView": 3,
      "byteOffset": 98048,
      "componentType": 5126,
      "count": 1088,
      "max": [
        0.9997978806495667,
        0.9994204640388489,
        0.9999886155128479,
        1.0
      ],
      "min": [
        -0.9999625086784363,
        -0.9994263648986816,
        -0.9999886751174927,
        1.0
      ],
      "type": "VEC4"
    },
    {
      "bufferView": 1,
      "byteOffset": 190792,
      "componentType": 5126,
      "count": 1088,
      "max": [
        0.9960694909095764,
        0.9980214834213257
      ],
      "min": [
        0.0383915901184082,
        0.258811354637146
      ],
      "type": "VEC2"
    },
    {
      "bufferView": 1,
      "byteOffset": 199496,
      "componentType": 5126,
      "count": 1088,
      "max": [
        0.9960694909095764,
        0.9980214834213257
      ],
      "min": [
        0.0383915901184082,
        0.258811354637146
      ],
      "type": "VEC2"
    },
    {
      "bufferView": 1,
      "byteOffset": 208200,
      "componentType": 5126,
      "count": 1088,
      "max": [
        0.9960694909095764,
        0.9980214834213257
      ],
      "min": [
        0.0383915901184082,
        0.258811354637146
      ],
      "type": "VEC2"
    },
    {
      "bufferView": 1,
      "byteOffset": 216904,
      "componentType": 5126,
      "count": 1088,
      "max": [
        0.9960694909095764,
        0.9980214834213257
      ],
      "min": [
        0.0383915901184082,
        0.258811354637146
      ],
      "type": "VEC2"
    },
    {
      "bufferView": 0,
      "byteOffset": 65976,
      "componentType": 5125,
      "count": 3024,
      "type": "SCALAR"
    },
    {
      "bufferView": 2,
      "byteOffset": 173472,
      "componentType": 5126,
      "count": 2112,
      "max": [
        -1.0199552774429321,
        -0.9317536354064941,
        -0.2168673276901245
      ],
      "min": [
        -1.1098672151565552,
        -1.021660327911377,
        -0.40343382954597473
      ],
      "type": "VEC3"
    },
    {
      "bufferView": 2,
      "byteOffset": 198816,
      "componentType": 5126,
      "count": 2112,
      "max": [
        0.9994155764579773,
        0.9994156360626221,
        1.0
      ],
      "min": [
        -0.99776291847229,
        -0.9994155168533325,
        -1.0
      ],
      "type": "VEC3"
    },
    {
      "bufferView": 3,
      "byteOffset": 115456,
      "componentType": 5126,
      "count": 2112,
      "max": [
        0.9975168108940125,
        0.9998154640197754,
        0.9999997615814209,
        1.0
      ],
      "min": [
        -0.6857112050056458,
        -0.9990228414535522,
        -0.9999995827674866,
        1.0
      ],
      "type": "VEC4"
    },
    {
      "bufferView": 1,
      "byteOffset": 225608,
      "componentType": 5126,
      "count": 2112,
      "max": [
        0.9760994911193848,
        0.9962670803070068
      ],
      "min": [
        0.11519229412078857,
        0.09690806269645691
      ],
      "type": "VEC2"
    },
    {
      "bufferView": 1,
      "byteOffset": 242504,
      "componentType": 5126,
      "count": 2112,
      "max": [
        0.9760994911193848,
        0.9962670803070068
      ],
      "min": [
        0.11519229412078857,
        0.09690806269645691
      ],
      "type": "VEC2"
    },
    {
      "bufferView": 1,
      "byteOffset": 259400,
      "componentType": 5126,
      "count": 2112,
      "max": [
        0.9760994911193848,
        0.9962670803070068
      ],
      "min": [
        0.11519229412078857,
        0.09690806269645691
      ],
      "type": "VEC2"
    },
    {
      "bufferView": 1,
      "byteOffset": 276296,
      "componentType": 5126,
      "count": 2112,
      "max": [
        0.9760994911193848,
        0.9962670803070068
      ],
      "min": [
        0.11519229412078857,
        0.09690806269645691
      ],
      "type": "VEC2"
    },
    {
      "bufferView": 0,
      "byteOffset": 78072,
      "componentType": 5125,
      "count": 9192,
      "type": "SCALAR"
    }
  ],
  "asset": {
    "extras": {
      "author": "Smoothie 3D (https://sketchfab.com/arisyn08)",
      "license": "CC-BY-4.0 (http://creativecommons.org/licenses/by/4.0/)",
      "source": "https://sketchfab.com/3d-models/retro-monitor-ibmcommodore-style-monitor-f8fa86319e18455aa760ab39441b8f53",
      "title": "Retro Monitor - IBM/Commodore style monitor"
    },
    "generator": "Sketchfab-16.62.0",
    "version": "2.0"
  },
  "bufferViews": [
    {
      "buffer": 0,
      "byteLength": 114840,
      "name": "floatBufferViews",
      "target": 34963
    },
    {
      "buffer": 0,
      "byteLength": 293192,
      "byteOffset": 114840,
      "byteStride": 8,
      "name": "floatBufferViews",
      "target": 34962
    },
    {
      "buffer": 0,
      "byteLength": 224160,
      "byteOffset": 408032,
      "byteStride": 12,
      "name": "floatBufferViews",
      "target": 34962
    },
    {
      "buffer": 0,
      "byteLength": 149248,
      "byteOffset": 632192,
      "byteStride": 16,
      "name": "floatBufferViews",
      "target": 34962
    }
  ],
  "buffers": [
    {
      "byteLength": 781440,
      "uri": "scene.bin"
    }
  ],
  "images": [
    {
      "uri": "textures/Case_Plastic_baseColor.png"
    },
    {
      "uri": "textures/Case_Plastic_metallicRoughness.png"
    },
    {
      "uri": "textures/Case_Plastic_normal.png"
    },
    {
      "uri": "textures/Screen_normal.png"
    },
    {
      "uri": "textures/Frame1_baseColor.png"
    },
    {
      "uri": "textures/Frame1_metallicRoughness.png"
    },
    {
      "uri": "textures/Frame1_normal.png"
    },
    {
      "uri": "textures/Frame2_baseColor.png"
    },
    {
      "uri": "textures/Frame2_metallicRoughness.png"
    },
    {
      "uri": "textures/Frame2_normal.png"
    },
    {
      "uri": "textures/Gray_baseColor.png"
    },
    {
      "uri": "textures/Gray_metallicRoughness.png"
    },
    {
      "uri": "textures/Gray_normal.png"
    },
    {
      "uri": "textures/Iron_baseColor.png"
    },
    {
      "uri": "textures/Iron_metallicRoughness.png"
    },
    {
      "uri": "textures/Iron_normal.png"
    }
  ],
  "materials": [
    {
      "doubleSided": true,
      "name": "Case_Plastic",
      "normalTexture": {
        "index": 2
      },
      "pbrMetallicRoughness": {
        "baseColorTexture": {
          "index": 0
        },
        "metallicFactor": 0.0,
        "metallicRoughnessTexture": {
          "index": 1
        }
      }
    },
    {
      "doubleSided": true,
      "emissiveFactor": [
        0.00262406,
        1.0,
        0.0
      ],
      "name": "Emission_LED",
      "pbrMetallicRoughness": {
        "baseColorFactor": [
          0.8,
          0.8,
          0.8,
          1.0
        ],
        "metallicFactor": 0.0,
        "roughnessFactor": 0.5
      }
    },
    {
      "doubleSided": true,
      "name": "Screen",
      "normalTexture": {
        "index": 3
      },
      "pbrMetallicRoughness": {
        "baseColorFactor": [
          0.0,
          0.0,
          0.0,
          1.0
        ],
        "metallicFactor": 0.0,
        "roughnessFactor": 0.0818182
      }
    },
    {
      "doubleSided": true,
      "name": "Frame1",
      "normalTexture": {
        "index": 6
      },
      "pbrMetallicRoughness": {
        "baseColorTexture": {
          "index": 4
        },
        "metallicFactor": 0.0,
        "metallicRoughnessTexture": {
          "index": 5
        }
      }
    },
    {
      "doubleSided": true,
      "name": "Frame2",
      "normalTexture": {
        "index": 9
      },
      "pbrMetallicRoughness": {
        "baseColorTexture": {
          "index": 7
        },
        "metallicFactor": 0.0,
        "metallicRoughnessTexture": {
          "index": 8
        }
      }
    },
    {
      "doubleSided": true,
      "name": "Gray",
      "normalTexture": {
        "index": 12
      },
      "pbrMetallicRoughness": {
        "baseColorTexture": {
          "index": 10
        },
        "metallicFactor": 0.0,
        "metallicRoughnessTexture": {
          "index": 11
        }
      }
    },
    {
      "doubleSided": true,
      "name": "Iron",
      "normalTexture": {
        "index": 15
      },
      "pbrMetallicRoughness": {
        "baseColorTexture": {
          "index": 13
        },
        "metallicFactor": 0.0,
        "metallicRoughnessTexture": {
          "index": 14
        }
      }
    }
  ],
  "meshes": [
    {
      "name": "Object_0",
      "primitives": [
        {
          "attributes": {
            "NORMAL": 1,
            "POSITION": 0,
            "TANGENT": 2,
            "TEXCOORD_0": 3,
            "TEXCOORD_1": 4,
            "TEXCOORD_2": 5,
            "TEXCOORD_3": 6
          },
          "indices": 7,
          "material": 0,
          "mode": 4
        }
      ]
    },
    {
      "name": "Object_1",
      "primitives": [
        {
          "attributes": {
            "NORMAL": 9,
            "POSITION": 8,
            "TEXCOORD_0": 10
          },
          "indices": 11,
          "material": 1,
          "mode": 4
        }
      ]
    },
    {
      "name": "Object_2",
      "primitives": [
        {
          "attributes": {
            "NORMAL": 13,
            "POSITION": 12,
            "TANGENT": 14,
            "TEXCOORD_0": 15
          },
          "indices": 16,
          "material": 2,
          "mode": 4
        }
      ]
    },
    {
      "name": "Object_3",
      "primitives": [
        {
          "attributes": {
            "NORMAL": 18,
            "POSITION": 17,
            "TANGENT": 19,
            "TEXCOORD_0": 20,
            "TEXCOORD_1": 21,
            "TEXCOORD_2": 22,
            "TEXCOORD_3": 23
          },
          "indices": 24,
          "material": 3,
          "mode": 4
        }
      ]
    },
    {
      "name": "Object_4",
      "primitives": [
        {
          "attributes": {
            "NORMAL": 26,
            "POSITION": 25,
            "TANGENT": 27,
            "TEXCOORD_0": 28,
            "TEXCOORD_1": 29,
            "TEXCOORD_2": 30,
            "TEXCOORD_3": 31
          },
          "indices": 32,
          "material": 4,
          "mode": 4
        }
      ]
    },
    {
      "name": "Object_5",
      "primitives": [
        {
          "attributes": {
            "NORMAL": 34,
            "POSITION": 33,
            "TANGENT": 35,
            "TEXCOORD_0": 36,
            "TEXCOORD_1": 37,
            "TEXCOORD_2": 38,
            "TEXCOORD_3": 39
          },
          "indices": 40,
          "material": 5,
          "mode": 4
        }
      ]
    },
    {
      "name": "Object_6",
      "primitives": [
        {
          "attributes": {
            "NORMAL": 42,
            "POSITION": 41,
            "TANGENT": 43,
            "TEXCOORD_0": 44,
            "TEXCOORD_1": 45,
            "TEXCOORD_2": 46,
            "TEXCOORD_3": 47
          },
          "indices": 48,
          "material": 6,
          "mode": 4
        }
      ]
    }
  ],
  "nodes": [
    {
      "children": [
        1
      ],
      "matrix": [
        1.0,
        0.0,
        0.0,
        0.0,
        0.0,
        2.220446049250313e-16,
        -1.0,
        0.0,
        0.0,
        1.0,
        2.220446049250313e-16,
        0.0,
        0.0,
        0.0,
        0.0,
        1.0
      ],
      "name": "Sketchfab_model"
    },
    {
      "children": [
        2
      ],
      "name": "root"
    },
    {
      "children": [
        3
      ],
      "matrix": [
        1.0,
        0.0,
        0.0,
        0.0,
        0.0,
        2.220446049250313e-16,
        1.0,
        0.0,
        0.0,
        -1.0,
        2.220446049250313e-16,
        0.0,
        0.0,
        0.0,
        0.0,
        1.0
      ],
      "name": "GLTF_SceneRootNode"
    },
    {
      "children": [
        4,
        5,
        6,
        7,
        8,
        9,
        10
      ],
      "matrix": [
        0.9998870554049075,
        0.015029186062573589,
        0.0,
        0.0,
        -0.015029186062573589,
        0.9998870554049075,
        0.0,
        0.0,
        0.0,
        0.0,
        1.0,
        0.0,
        0.0,
        1.1500678062438965,
        0.0,
        1.0
      ],
      "name": "Monitor_0"
    },
    {
      "mesh": 0,
      "name": "Object_4"
    },
    {
      "mesh": 1,
      "name": "Object_5"
    },
    {
      "mesh": 2,
      "name": "Object_6"
    },
    {
      "mesh": 3,
      "name": "Object_7"
    },
    {
      "mesh": 4,
      "name": "Object_8"
    },
    {
      "mesh": 5,
      "name": "Object_9"
    },
    {
      "mesh": 6,
      "name": "Object_10"
    }
  ],
  "samplers": [
    {
      "magFilter": 9729,
      "minFilter": 9987,
      "wrapS": 10497,
      "wrapT": 10497
    }
  ],
  "scene": 0,
  "scenes": [
    {
      "name": "Sketchfab_Scene",
      "nodes": [
        0
      ]
    }
  ],
  "textures": [
    {
      "sampler": 0,
      "source": 0
    },
    {
      "sampler": 0,
      "source": 1
    },
    {
      "sampler": 0,
      "source": 2
    },
    {
      "sampler": 0,
      "source": 3
    },
    {
      "sampler": 0,
      "source": 4
    },
    {
      "sampler": 0,
      "source": 5
    },
    {
      "sampler": 0,
      "source": 6
    },
    {
      "sampler": 0,
      "source": 7
    },
    {
      "sampler": 0,
      "source": 8
    },
    {
      "sampler": 0,
      "source": 9
    },
    {
      "sampler": 0,
      "source": 10
    },
    {
      "sampler": 0,
      "source": 11
    },
    {
      "sampler": 0,
      "source": 12
    },
    {
      "sampler": 0,
      "source": 13
    },
    {
      "sampler": 0,
      "source": 14
    },
    {
      "sampler": 0,
      "source": 15
    }
  ]
}
